<?xml version="1.0" encoding="UTF-8" standalone="no"?>
<svg
   xmlns:dc="http://purl.org/dc/elements/1.1/"
   xmlns:cc="http://creativecommons.org/ns#"
   xmlns:rdf="http://www.w3.org/1999/02/22-rdf-syntax-ns#"
   xmlns:svg="http://www.w3.org/2000/svg"
   xmlns="http://www.w3.org/2000/svg"
   xmlns:sodipodi="http://sodipodi.sourceforge.net/DTD/sodipodi-0.dtd"
   xmlns:inkscape="http://www.inkscape.org/namespaces/inkscape"
   inkscape:export-ydpi="384"
   inkscape:export-xdpi="384"
   inkscape:export-filename="C:\Users\dclemens\Pictures\maskupwr-png-huge-transparent.png"
   sodipodi:docname="maskupwr-vector.svg"
   inkscape:version="1.0 (4035a4fb49, 2020-05-01)"
   id="svg1253"
   version="1.1"
   viewBox="0 0 158.75 105.83333"
   height="400"
   width="600">
  <defs
     id="defs1247" />
  <sodipodi:namedview
     inkscape:window-maximized="1"
     inkscape:window-y="-8"
     inkscape:window-x="-8"
     inkscape:window-height="1017"
     inkscape:window-width="1920"
     units="px"
     showgrid="false"
     inkscape:document-rotation="0"
     inkscape:current-layer="layer1"
     inkscape:document-units="px"
     inkscape:cy="282.17519"
     inkscape:cx="304.27212"
     inkscape:zoom="0.98994949"
     inkscape:pageshadow="2"
     inkscape:pageopacity="0.0"
     borderopacity="1.0"
     bordercolor="#666666"
     pagecolor="#ffffff"
     id="base" />
  <metadata
     id="metadata1250">
    <rdf:RDF>
      <cc:Work
         rdf:about="">
        <dc:format>image/svg+xml</dc:format>
        <dc:type
           rdf:resource="http://purl.org/dc/dcmitype/StillImage" />
        <dc:title></dc:title>
      </cc:Work>
    </rdf:RDF>
  </metadata>
  <g
     id="layer1"
     inkscape:groupmode="layer"
     inkscape:label="Layer 1">
    <rect
       y="-7.1815481"
       x="-188.71452"
       height="117.92857"
       width="178.78275"
       id="rect2002"
       style="fill:#ffffff;stroke:#ff00ff;stroke-width:1.05833" />
    <path
       d="m 102.63329,7.3359907 c -1.68941,0.02945 -3.655672,0.653903 -6.218252,1.887098 C 77.411405,18.368226 61.174953,29.550899 31.762576,25.600537 c -0.0276,0.69742 -0.07374,1.438883 -0.128231,2.200571 -5.52877,-3.337072 -7.86009,-10.991758 -15.491195,-7.806006 -2.687291,1.121849 -3.768914,3.889121 -4.037786,5.745074 -1.793074,12.377673 3.254943,22.280254 14.656285,32.948682 -0.210377,1.037902 -0.421704,2.085588 -0.628039,3.07829 13.396702,13.928098 25.889596,21.943128 41.670418,29.150548 27.044498,12.351824 40.924982,3.981533 45.896842,-6.90093 0.28322,-0.61989 0.56223,-1.23702 0.84517,-1.85631 1.66346,-13.63839 1.5404,-29.500999 0.67135,-43.574795 -0.74994,-12.14523 -3.1462,-20.295652 -5.63124,-23.119936 -0.83053,-0.395066 -1.96791,-0.904761 -3.80982,-0.791658 -2.30864,0.141706 -5.18647,0.881259 -8.055632,2.380103 C 78.73422,26.972688 61.245869,37.265762 31.786512,33.309084 l 0.0171,-0.404664 c 29.365396,3.944041 47.29026,-8.554153 65.789996,-17.863875 2.914702,-1.466756 5.795912,-2.305734 8.169612,-2.408598 2.37352,-0.102637 4.18606,0.652284 5.2494,2.428546 2.11165,3.527249 3.8491,6.930154 6.07235,9.037662 3.3339,3.16037 5.51636,4.025798 8.52183,5.067977 0.004,-0.554524 0.028,-4.750135 -0.01,-6.572637 -3.65491,-0.873105 -11.13005,-6.564864 -17.13972,-12.452221 -1.93733,-1.8978903 -3.65174,-2.8431673 -5.82387,-2.8052833 z M 19.092988,20.600386 c 4.738059,-0.03807 8.2076,6.591821 12.370388,9.258802 -0.730758,7.806384 -2.545752,18.053362 -4.352946,27.11014 -8.377826,-7.425005 -16.224719,-19.173945 -13.64755,-30.837027 0.405007,-1.832886 1.022714,-3.959236 3.366438,-5.010984 0.788644,-0.353908 1.541027,-0.515122 2.26367,-0.520931 z m 59.631586,18.4532 h 2.646075 v 14.443051 h 0.147035 c 0.07353,-0.171504 0.159059,-0.379656 0.257028,-0.624664 0.098,-0.269502 0.257094,-0.661863 0.477581,-1.176373 0.220487,-0.539009 0.526711,-1.249587 0.918691,-2.131606 0.41648,-0.906524 0.955928,-2.094425 1.617394,-3.564452 h 2.866058 l -3.123657,7.313002 3.087183,10.437452 h -2.793111 l -2.204966,-7.350047 h -0.147038 l -1.102198,2.352176 v 4.997871 h -2.646075 z m -42.249441,0.294096 h 1.910896 l -0.477581,7.497091 h 1.800901 l 0.514056,-7.497091 h 1.910897 l -0.477581,7.497091 h 1.506832 l -0.147035,1.873991 h -1.506834 l -0.330545,5.43958 h 1.580351 l -0.18408,1.873989 h -1.543305 l -0.477583,7.717663 h -1.947939 l 0.514625,-7.717663 h -1.83738 l -0.477581,7.717663 h -1.94794 l 0.514624,-7.717663 H 33.8661 l 0.18408,-1.873989 h 1.432746 l 0.367588,-5.43958 h -1.543306 l 0.147037,-1.873991 h 1.506831 z m 8.155361,0 h 4.262899 l 2.24144,18.0075 h 0.147037 l 2.278485,-18.0075 H 57.67622 V 63.749996 H 55.214224 V 51.181507 49.85809 48.020577 c 0.02452,-0.661515 0.03647,-1.29852 0.03647,-1.911035 0.02451,-0.612508 0.04902,-1.10239 0.07352,-1.469897 H 55.177181 L 52.421114,63.749996 H 49.885599 L 47.129532,44.639645 h -0.147037 c 0.0245,0.367507 0.03647,0.734774 0.03647,1.102281 0.02451,0.367507 0.03704,0.796362 0.03704,1.286371 0.02451,0.490011 0.03647,1.066007 0.03647,1.727511 v 2.425699 12.568489 h -2.461999 z m 44.219606,0 h 3.23365 v 18.705686 c 0,1.911039 0.833126,2.866838 2.499036,2.866838 1.690412,0 2.535522,-0.967778 2.535522,-2.903314 v -18.66921 h 3.233652 v 18.448639 c 0,1.984539 -0.477882,3.515762 -1.433322,4.593781 -0.95545,1.053519 -2.38847,1.580463 -4.299372,1.580463 -1.8374,0 -3.258456,-0.502425 -4.262902,-1.50694 C 89.351912,61.459103 88.8501,59.927886 88.8501,57.869844 Z m -25.348296,6.504812 c 2.645843,0 3.968828,1.041344 3.968828,3.123885 V 63.749996 H 65.04511 l -0.07352,-1.543419 h -0.147035 c -0.269487,0.441006 -0.624751,0.832798 -1.065727,1.175804 -0.416478,0.343006 -1.053439,0.514663 -1.910893,0.514663 -1.028947,0 -1.763422,-0.269747 -2.204399,-0.808756 -0.416478,-0.53901 -0.625187,-1.273542 -0.625187,-2.204558 v -3.528548 c 0,-0.612507 0.06158,-1.126904 0.184079,-1.543419 0.122494,-0.416504 0.318088,-0.771793 0.587572,-1.065801 0.269485,-0.318508 0.624748,-0.575707 1.065727,-0.771711 0.440974,-0.220501 0.980427,-0.428659 1.617392,-0.624662 0.710464,-0.196002 1.273866,-0.392182 1.690343,-0.588188 0.440977,-0.196002 0.661093,-0.502243 0.661093,-0.918754 v -2.498651 c 0,-0.808519 -0.501815,-1.212849 -1.506263,-1.212849 -1.077941,0 -1.617394,0.440831 -1.617394,1.322849 V 51.6956 h -2.461992 v -2.535698 c 0,-1.12702 0.367806,-1.96021 1.102768,-2.499222 0.734961,-0.539018 1.788205,-0.808186 3.160132,-0.808186 z m 9.503758,0 c 1.371929,0 2.401219,0.318219 3.087185,0.955233 0.685961,0.637013 1.02868,1.531226 1.02868,2.682745 v 1.948081 h -2.498469 v -2.05808 c 0,-0.906518 -0.514932,-1.359896 -1.543878,-1.359896 -1.053442,0 -1.579779,0.404336 -1.579779,1.212848 v 1.984559 c 0,0.416505 0.04904,0.735292 0.147033,0.955802 0.122497,0.196003 0.391652,0.428685 0.808131,0.698187 0.563468,0.392007 1.139409,0.722772 1.727385,0.992278 0.587964,0.269501 1.151372,0.600266 1.690342,0.99228 0.465475,0.343006 0.808195,0.747345 1.028681,1.212848 0.244983,0.465512 0.367588,1.126473 0.367588,1.983989 v 2.315699 c 0,1.200524 -0.330745,2.094736 -0.992206,2.682745 -0.661466,0.56351 -1.702733,0.845232 -3.123657,0.845232 -1.518922,0 -2.621201,-0.306246 -3.307166,-0.918757 -0.661467,-0.637014 -0.992207,-1.555742 -0.992207,-2.756267 v -2.168652 h 2.499038 v 2.242174 c 0,0.490012 0.122605,0.857272 0.367592,1.102281 0.269486,0.220503 0.710288,0.331137 1.322752,0.331137 1.053444,0 1.580351,-0.441399 1.580351,-1.323417 v -2.278652 c 0,-0.392004 -0.07356,-0.71023 -0.220554,-0.955231 -0.122488,-0.245009 -0.428715,-0.539274 -0.91869,-0.88228 -0.171492,-0.09801 -0.404718,-0.23259 -0.698706,-0.404094 -0.26948,-0.171502 -0.575707,-0.355137 -0.918689,-0.55114 C 71.547834,55.138137 71.22964,54.941965 70.911155,54.745962 70.592673,54.52546 70.322947,54.317301 70.102459,54.121298 69.685985,53.753791 69.392305,53.349461 69.220813,52.90845 69.07382,52.442946 69.000261,51.879498 69.000259,51.217984 v -2.205129 c 0,-0.980014 0.330743,-1.751617 0.992209,-2.315126 0.685958,-0.563519 1.690163,-0.845235 3.013094,-0.845235 z m 36.356608,0.03647 c 1.32294,0 2.35223,0.404339 3.08719,1.212848 0.75946,0.784021 1.13867,1.947977 1.13867,3.491503 v 8.672895 c 0,1.543523 -0.36724,2.72003 -1.1022,3.528548 -0.73496,0.784012 -1.76367,1.1758 -3.08661,1.1758 -0.88195,0 -1.64152,-0.183632 -2.27848,-0.551138 -0.61248,-0.392006 -1.09034,-1.01704 -1.43332,-1.87456 h -0.14703 v 10.768026 h -3.12366 V 46.109542 h 2.82959 l 0.11055,2.535699 h 0.14704 c 0.39198,-0.955517 0.8938,-1.653549 1.50627,-2.094561 0.61246,-0.441005 1.39655,-0.661709 2.35199,-0.661709 z m -1.28628,2.793315 c -0.73496,0 -1.28581,0.196181 -1.65329,0.588185 -0.36747,0.392012 -0.68625,1.053554 -0.95573,1.984558 v 7.350047 c 0.26948,0.931019 0.58826,1.592548 0.95573,1.98456 0.36748,0.392006 0.91833,0.587617 1.65329,0.587617 0.75947,0 1.33542,-0.20815 1.7274,-0.624665 0.39197,-0.416505 0.58814,-1.090018 0.58814,-2.021034 v -7.203571 c 0,-0.931004 -0.19617,-1.60453 -0.58814,-2.021036 -0.39198,-0.41651 -0.96793,-0.624661 -1.7274,-0.624661 z m -70.31448,0.03648 -0.330545,5.43958 H 39.2312 l 0.36759,-5.43958 z m 27.100189,5.549582 c -0.269485,0.196008 -0.514689,0.330593 -0.735178,0.404092 -0.195988,0.04897 -0.514187,0.147058 -0.955164,0.294094 -0.636965,0.195988 -1.065791,0.428678 -1.286277,0.698184 -0.195992,0.269501 -0.294072,0.673842 -0.294072,1.21285 v 3.38093 c 0,0.882018 0.477864,1.323421 1.433315,1.323421 0.489971,0 0.869756,-0.110638 1.139241,-0.331141 0.269487,-0.220503 0.502147,-0.551268 0.698135,-0.99228 z"
       style="color:#000000;font-style:normal;font-variant:normal;font-weight:normal;font-stretch:normal;font-size:medium;line-height:normal;font-family:sans-serif;font-variant-ligatures:normal;font-variant-position:normal;font-variant-caps:normal;font-variant-numeric:normal;font-variant-alternates:normal;font-variant-east-asian:normal;font-feature-settings:normal;font-variation-settings:normal;text-indent:0;text-align:start;text-decoration:none;text-decoration-line:none;text-decoration-style:solid;text-decoration-color:#000000;letter-spacing:normal;word-spacing:normal;text-transform:none;writing-mode:lr-tb;direction:ltr;text-orientation:mixed;dominant-baseline:auto;baseline-shift:baseline;text-anchor:start;white-space:normal;shape-padding:0;shape-margin:0;inline-size:0;clip-rule:nonzero;display:inline;overflow:visible;visibility:visible;opacity:1;isolation:auto;mix-blend-mode:normal;color-interpolation:sRGB;color-interpolation-filters:linearRGB;solid-color:#000000;solid-opacity:1;vector-effect:none;fill:#000000;fill-opacity:1;fill-rule:nonzero;stroke:none;stroke-width:0.264583;stroke-linecap:butt;stroke-linejoin:miter;stroke-miterlimit:4;stroke-dasharray:none;stroke-dashoffset:0;stroke-opacity:1;color-rendering:auto;image-rendering:auto;shape-rendering:auto;text-rendering:auto;enable-background:accumulate;stop-color:#000000;stop-opacity:1"
       id="path874-8-6-2-0" />
    <g
       style="font-size:33.3214px;line-height:1.25;font-family:Coolvetica;-inkscape-font-specification:Coolvetica;letter-spacing:0px;word-spacing:0px;display:inline;fill:#ffffff;stroke-width:0.264583"
       id="text12-5-4-8-6-4-8"
       aria-label="#MaskUp" />
    <g
       transform="matrix(1.1028362,0,0,1.1029164,-42.72419,-82.874213)"
       style="font-size:33.3214px;line-height:1.25;font-family:Coolvetica;-inkscape-font-specification:Coolvetica;letter-spacing:0px;word-spacing:0px;display:inline;fill:#ffffff;stroke-width:0.239902;stroke:none"
       id="text12-5-4-8-6-4-4-6"
       aria-label="WR">
      <path
         id="path1997"
         style="font-style:normal;font-variant:normal;font-weight:normal;font-stretch:condensed;font-size:33.3214px;font-family:Coolvetica;-inkscape-font-specification:'Coolvetica Condensed';fill:#000000;stroke-width:0.239902;stroke:none"
         d="m 146.56445,132.32999 -2.66571,-22.12541 h 2.86564 l 1.93264,16.8273 h 0.13329 l 2.06593,-16.8273 h 3.36546 l 2.13257,16.8273 h 0.13328 l 1.89932,-16.8273 h 2.83232 l -2.66571,22.12541 h -3.76532 l -2.19921,-17.1272 h -0.13329 l -2.16589,17.1272 z" />
      <path
         id="path1999"
         style="font-style:normal;font-variant:normal;font-weight:normal;font-stretch:condensed;font-size:33.3214px;font-family:Coolvetica;-inkscape-font-specification:'Coolvetica Condensed';fill:#000000;stroke-width:0.239902;stroke:none"
         d="m 162.55612,132.32999 v -22.12541 h 6.16446 q 2.3325,0 3.2655,1.16625 0.933,1.16625 0.933,3.26549 v 3.03225 q 0,1.53279 -0.59979,2.43246 -0.59978,0.89968 -1.66607,1.16625 v 0.13329 q 1.16625,0.23325 1.73272,1.06628 0.59978,0.83304 0.59978,2.49911 v 7.36403 h -2.93228 v -7.59728 q 0,-1.06629 -0.39986,-1.53279 -0.39985,-0.49982 -1.46614,-0.49982 h -2.69903 v 9.62989 z m 7.464,-17.36045 q 0,-1.03297 -0.4665,-1.53279 -0.43318,-0.53314 -1.49946,-0.53314 h -2.56575 v 7.29739 h 2.59907 q 0.89967,0 1.3995,-0.49982 0.53314,-0.49982 0.53314,-1.76604 z" />
    </g>
  </g>
</svg>
